<svg width="50" height="50" viewBox="0 0 50 50" fill="none" xmlns="http://www.w3.org/2000/svg">
<g id="ph:tree">
<path id="Vector" d="M11.3085 12.2266C12.4388 9.52783 14.3415 7.22332 16.7775 5.60257C19.2134 3.98182 22.0741 3.11713 24.9999 3.11713C27.9258 3.11713 30.7865 3.98182 33.2224 5.60257C35.6584 7.22332 37.561 9.52783 38.6914 12.2266C41.1238 13.353 43.1853 15.1489 44.6345 17.404C46.0838 19.6591 46.8609 22.2803 46.8749 24.9609C46.8964 32.543 40.7499 38.8672 33.1757 39.0625C30.8845 39.1223 28.6136 38.6186 26.5624 37.5957V45.3125C26.5624 45.7269 26.3978 46.1243 26.1048 46.4174C25.8118 46.7104 25.4143 46.875 24.9999 46.875C24.5855 46.875 24.1881 46.7104 23.8951 46.4174C23.6021 46.1243 23.4374 45.7269 23.4374 45.3125V37.5957C21.4964 38.5637 19.3565 39.0659 17.1874 39.0625H16.8242C9.24994 38.8672 3.10346 32.5469 3.12494 24.9648C3.13805 22.2835 3.91471 19.6614 5.36402 17.4054C6.81333 15.1495 8.8753 13.3531 11.3085 12.2266ZM16.9042 35.9375C19.1608 36.0004 21.3809 35.3587 23.2558 34.1016C23.317 34.0625 23.3775 34.0254 23.4374 33.9902V25.9648L14.9257 21.7109C14.7421 21.6191 14.5783 21.492 14.4438 21.3369C14.3093 21.1818 14.2066 21.0017 14.1417 20.8069C14.0767 20.6121 14.0508 20.4065 14.0654 20.2017C14.0799 19.9969 14.1347 19.7969 14.2265 19.6133C14.3183 19.4296 14.4454 19.2659 14.6005 19.1314C14.7556 18.9968 14.9357 18.8942 15.1305 18.8292C15.3253 18.7643 15.531 18.7384 15.7358 18.7529C15.9406 18.7675 16.1405 18.8222 16.3242 18.9141L23.4374 22.4727V17.1875C23.4374 16.7731 23.6021 16.3757 23.8951 16.0826C24.1881 15.7896 24.5855 15.625 24.9999 15.625C25.4143 15.625 25.8118 15.7896 26.1048 16.0826C26.3978 16.3757 26.5624 16.7731 26.5624 17.1875V27.1602L33.6757 23.6016C34.0466 23.4161 34.476 23.3856 34.8694 23.5167C35.2628 23.6479 35.5879 23.9299 35.7734 24.3008C35.9588 24.6717 35.9893 25.101 35.8582 25.4944C35.7271 25.8878 35.4451 26.213 35.0742 26.3984L26.5624 30.6523V33.9844C26.6236 34.0195 26.6842 34.0566 26.7441 34.0957C28.6189 35.3539 30.8386 35.9975 33.0956 35.9375C35.5659 35.8758 37.9425 34.9794 39.8382 33.3944C41.7339 31.8094 43.0371 29.6292 43.5353 27.2089C44.0336 24.7887 43.6977 22.271 42.5822 20.0661C41.4667 17.8611 39.6375 16.0989 37.3925 15.0664C36.6825 14.7411 36.1211 14.1602 35.8203 13.4395C34.9284 11.3079 33.4263 9.48765 31.5028 8.20741C29.5793 6.92716 27.3203 6.24411 25.0097 6.24411C22.6991 6.24411 20.4401 6.92716 18.5166 8.20741C16.5931 9.48765 15.091 11.3079 14.1992 13.4395C13.8983 14.1602 13.3369 14.7411 12.6269 15.0664C10.3819 16.0989 8.55267 17.8611 7.43721 20.0661C6.32175 22.271 5.98579 24.7887 6.48407 27.2089C6.98235 29.6292 8.28549 31.8094 10.1812 33.3944C12.0769 34.9794 14.4535 35.8758 16.9238 35.9375H16.9042Z" fill="white"/>
</g>
</svg>
