<svg width="105" height="105" viewBox="0 0 105 105" fill="none" xmlns="http://www.w3.org/2000/svg">
<g id="ri:double-quotes-r">
<path id="Vector" d="M84.9494 29.2206C89.4556 34.0069 91.875 39.375 91.875 48.0769C91.875 63.3894 81.1256 77.1138 65.4937 83.8994L61.5869 77.8706C76.1775 69.9781 79.03 59.7363 80.1675 53.2788C77.8181 54.495 74.7425 54.9194 71.7281 54.6394C63.8356 53.9088 57.6144 47.4294 57.6144 39.375C57.6144 35.3139 59.2276 31.4191 62.0993 28.5474C64.9709 25.6758 68.8657 24.0625 72.9269 24.0625C77.6212 24.0625 82.11 26.2062 84.9494 29.2206ZM41.1994 29.2206C45.7056 34.0069 48.125 39.375 48.125 48.0769C48.125 63.3894 37.3756 77.1138 21.7437 83.8994L17.8369 77.8706C32.4275 69.9781 35.28 59.7363 36.4175 53.2788C34.0681 54.495 30.9925 54.9194 27.9781 54.6394C20.0856 53.9088 13.8687 47.4294 13.8687 39.375C13.8687 35.3139 15.482 31.4191 18.3537 28.5474C21.2253 25.6758 25.1201 24.0625 29.1812 24.0625C33.8756 24.0625 38.3644 26.2062 41.2037 29.2206H41.1994Z" fill="#296253"/>
</g>
</svg>
